<mxfile host="app.diagrams.net" modified="2023-09-26T11:14:46.618Z" agent="Mozilla/5.0 (Windows NT 10.0; Win64; x64) AppleWebKit/537.36 (KHTML, like Gecko) Chrome/117.0.0.0 Safari/537.36" etag="LAiXwXJvK7f78scj1d6e" version="21.8.2" type="github" pages="3">
  <diagram name="Page-1" id="74e2e168-ea6b-b213-b513-2b3c1d86103e">
    <mxGraphModel dx="880" dy="470" grid="1" gridSize="10" guides="1" tooltips="1" connect="1" arrows="1" fold="1" page="1" pageScale="1" pageWidth="850" pageHeight="1500" background="none" math="0" shadow="0">
      <root>
        <mxCell id="0" />
        <mxCell id="1" parent="0" />
        <mxCell id="5HVlAv0M6LLN2Jrp2UyM-1" value="Mulai" style="rounded=1;whiteSpace=wrap;html=1;points=[[0,0,0,0,0],[0,0.25,0,0,0],[0,0.5,0,0,0],[0,0.75,0,0,0],[0,1,0,0,0],[0.25,0,0,0,0],[0.25,1,0,0,0],[0.5,0,0,0,0],[0.5,1,0,0,0],[0.75,0,0,0,0],[0.75,1,0,0,0],[1,0,0,0,0],[1,0.25,0,0,0],[1,0.5,0,0,0],[1,0.75,0,0,0],[1,1,0,0,0]];labelBackgroundColor=none;fillColor=#56517E;strokeColor=#EEEEEE;fontColor=#FFFFFF;" parent="1" vertex="1">
          <mxGeometry x="333" y="223" width="120" height="60" as="geometry" />
        </mxCell>
        <mxCell id="5HVlAv0M6LLN2Jrp2UyM-6" value="masukkan jumlah belanja" style="shape=parallelogram;html=1;strokeWidth=2;perimeter=parallelogramPerimeter;whiteSpace=wrap;rounded=1;arcSize=12;size=0.23;labelBackgroundColor=none;fillColor=#56517E;strokeColor=#EEEEEE;fontColor=#FFFFFF;" parent="1" vertex="1">
          <mxGeometry x="287" y="452" width="210" height="50" as="geometry" />
        </mxCell>
        <mxCell id="5HVlAv0M6LLN2Jrp2UyM-8" value="" style="group;labelBackgroundColor=none;fontColor=#FFFFFF;" parent="1" vertex="1" connectable="0">
          <mxGeometry x="318" y="322" width="150" height="90" as="geometry" />
        </mxCell>
        <mxCell id="5HVlAv0M6LLN2Jrp2UyM-4" value="" style="verticalLabelPosition=bottom;verticalAlign=top;html=1;shape=hexagon;perimeter=hexagonPerimeter2;arcSize=6;size=0.27;labelBackgroundColor=none;fillColor=#56517E;strokeColor=#EEEEEE;fontColor=#FFFFFF;" parent="5HVlAv0M6LLN2Jrp2UyM-8" vertex="1">
          <mxGeometry width="150" height="90" as="geometry" />
        </mxCell>
        <mxCell id="5HVlAv0M6LLN2Jrp2UyM-7" value="&lt;div&gt;nomor customer,&lt;/div&gt;&lt;div&gt;Jumlah_Belanja,&lt;/div&gt;&lt;div&gt;Poin = 0&lt;/div&gt;" style="text;strokeColor=none;align=center;fillColor=none;html=1;verticalAlign=middle;whiteSpace=wrap;rounded=0;labelBackgroundColor=none;fontColor=#FFFFFF;" parent="5HVlAv0M6LLN2Jrp2UyM-8" vertex="1">
          <mxGeometry x="25" y="20" width="100" height="50" as="geometry" />
        </mxCell>
        <mxCell id="5HVlAv0M6LLN2Jrp2UyM-9" value="" style="endArrow=classic;html=1;rounded=0;labelBackgroundColor=none;strokeColor=#182E3E;fontColor=default;" parent="1" source="5HVlAv0M6LLN2Jrp2UyM-1" target="5HVlAv0M6LLN2Jrp2UyM-4" edge="1">
          <mxGeometry width="50" height="50" relative="1" as="geometry">
            <mxPoint x="333" y="442" as="sourcePoint" />
            <mxPoint x="383" y="392" as="targetPoint" />
            <Array as="points">
              <mxPoint x="393" y="322" />
            </Array>
          </mxGeometry>
        </mxCell>
        <mxCell id="5HVlAv0M6LLN2Jrp2UyM-10" value="" style="endArrow=classic;html=1;rounded=0;labelBackgroundColor=none;strokeColor=#182E3E;fontColor=default;" parent="1" edge="1">
          <mxGeometry width="50" height="50" relative="1" as="geometry">
            <mxPoint x="393" y="412" as="sourcePoint" />
            <mxPoint x="393" y="451" as="targetPoint" />
            <Array as="points">
              <mxPoint x="393" y="451" />
            </Array>
          </mxGeometry>
        </mxCell>
        <mxCell id="5HVlAv0M6LLN2Jrp2UyM-11" value="Poin = Jumlah_Belanja / 50.000" style="rounded=1;whiteSpace=wrap;html=1;absoluteArcSize=1;arcSize=14;strokeWidth=2;labelBackgroundColor=none;fillColor=#56517E;strokeColor=#EEEEEE;fontColor=#FFFFFF;" parent="1" vertex="1">
          <mxGeometry x="588" y="672" width="200" height="90" as="geometry" />
        </mxCell>
        <mxCell id="5HVlAv0M6LLN2Jrp2UyM-12" value="" style="endArrow=classic;html=1;rounded=0;labelBackgroundColor=none;strokeColor=#182E3E;fontColor=default;" parent="1" edge="1">
          <mxGeometry width="50" height="50" relative="1" as="geometry">
            <mxPoint x="394" y="502" as="sourcePoint" />
            <mxPoint x="394" y="539" as="targetPoint" />
            <Array as="points">
              <mxPoint x="394" y="539" />
            </Array>
          </mxGeometry>
        </mxCell>
        <mxCell id="5HVlAv0M6LLN2Jrp2UyM-13" value="" style="strokeWidth=2;html=1;shape=mxgraph.flowchart.decision;whiteSpace=wrap;labelBackgroundColor=none;fillColor=#56517E;strokeColor=#EEEEEE;fontColor=#FFFFFF;" parent="1" vertex="1">
          <mxGeometry x="344" y="539" width="100" height="100" as="geometry" />
        </mxCell>
        <mxCell id="5HVlAv0M6LLN2Jrp2UyM-15" value="" style="endArrow=classic;html=1;rounded=0;entryX=0.5;entryY=0;entryDx=0;entryDy=0;labelBackgroundColor=none;strokeColor=#182E3E;fontColor=default;exitX=1;exitY=0.5;exitDx=0;exitDy=0;exitPerimeter=0;" parent="1" source="5HVlAv0M6LLN2Jrp2UyM-13" target="5HVlAv0M6LLN2Jrp2UyM-11" edge="1">
          <mxGeometry width="50" height="50" relative="1" as="geometry">
            <mxPoint x="468" y="589" as="sourcePoint" />
            <mxPoint x="497" y="571" as="targetPoint" />
            <Array as="points">
              <mxPoint x="688" y="592" />
            </Array>
          </mxGeometry>
        </mxCell>
        <mxCell id="5HVlAv0M6LLN2Jrp2UyM-16" value="Jumlah belanja &amp;gt; 50.000" style="text;strokeColor=#314354;align=center;fillColor=#647687;html=1;verticalAlign=middle;whiteSpace=wrap;rounded=0;labelBackgroundColor=none;fontColor=#ffffff;" parent="1" vertex="1">
          <mxGeometry x="485" y="550" width="170" height="30" as="geometry" />
        </mxCell>
        <mxCell id="5HVlAv0M6LLN2Jrp2UyM-17" value="" style="endArrow=classic;html=1;rounded=0;exitX=0;exitY=0.5;exitDx=0;exitDy=0;exitPerimeter=0;labelBackgroundColor=none;strokeColor=#182E3E;fontColor=default;" parent="1" source="5HVlAv0M6LLN2Jrp2UyM-13" edge="1">
          <mxGeometry width="50" height="50" relative="1" as="geometry">
            <mxPoint x="428" y="599" as="sourcePoint" />
            <mxPoint x="147" y="672" as="targetPoint" />
            <Array as="points">
              <mxPoint x="147" y="589" />
            </Array>
          </mxGeometry>
        </mxCell>
        <mxCell id="9LC1-C9B8ry4PlxiWx_H-1" value="Poin = 0" style="rounded=1;whiteSpace=wrap;html=1;absoluteArcSize=1;arcSize=14;strokeWidth=2;labelBackgroundColor=none;fillColor=#56517E;strokeColor=#EEEEEE;fontColor=#FFFFFF;" parent="1" vertex="1">
          <mxGeometry x="46" y="672" width="200" height="90" as="geometry" />
        </mxCell>
        <mxCell id="9LC1-C9B8ry4PlxiWx_H-2" value="Jumlah belanja &amp;lt; 50.000" style="text;strokeColor=#314354;align=center;fillColor=#647687;html=1;verticalAlign=middle;whiteSpace=wrap;rounded=0;labelBackgroundColor=none;fontColor=#ffffff;" parent="1" vertex="1">
          <mxGeometry x="144" y="551" width="170" height="30" as="geometry" />
        </mxCell>
        <mxCell id="9LC1-C9B8ry4PlxiWx_H-6" value="" style="endArrow=classic;html=1;rounded=0;labelBackgroundColor=none;strokeColor=#182E3E;fontColor=default;exitX=0.5;exitY=1;exitDx=0;exitDy=0;entryX=0;entryY=0.5;entryDx=0;entryDy=0;entryPerimeter=0;" parent="1" source="9LC1-C9B8ry4PlxiWx_H-1" edge="1">
          <mxGeometry width="50" height="50" relative="1" as="geometry">
            <mxPoint x="118" y="494" as="sourcePoint" />
            <mxPoint x="344" y="814" as="targetPoint" />
            <Array as="points">
              <mxPoint x="148" y="814" />
            </Array>
          </mxGeometry>
        </mxCell>
        <mxCell id="9LC1-C9B8ry4PlxiWx_H-7" value="" style="endArrow=classic;html=1;rounded=0;exitX=0.5;exitY=1;exitDx=0;exitDy=0;labelBackgroundColor=none;strokeColor=#182E3E;fontColor=default;entryX=1;entryY=0.5;entryDx=0;entryDy=0;entryPerimeter=0;" parent="1" source="5HVlAv0M6LLN2Jrp2UyM-11" edge="1">
          <mxGeometry width="50" height="50" relative="1" as="geometry">
            <mxPoint x="478" y="854" as="sourcePoint" />
            <mxPoint x="444" y="814" as="targetPoint" />
            <Array as="points">
              <mxPoint x="688" y="814" />
            </Array>
          </mxGeometry>
        </mxCell>
        <mxCell id="9LC1-C9B8ry4PlxiWx_H-10" value="Cek Jumlah Belanja" style="rounded=1;whiteSpace=wrap;html=1;absoluteArcSize=1;arcSize=14;strokeWidth=2;strokeColor=#EEEEEE;fontColor=#FFFFFF;fillColor=#56517E;" parent="1" vertex="1">
          <mxGeometry x="344" y="766" width="100" height="100" as="geometry" />
        </mxCell>
        <mxCell id="9LC1-C9B8ry4PlxiWx_H-11" value="" style="endArrow=classic;html=1;rounded=0;labelBackgroundColor=none;strokeColor=#182E3E;fontColor=default;" parent="1" edge="1">
          <mxGeometry width="50" height="50" relative="1" as="geometry">
            <mxPoint x="398" y="865" as="sourcePoint" />
            <mxPoint x="398" y="902" as="targetPoint" />
            <Array as="points">
              <mxPoint x="398" y="902" />
            </Array>
          </mxGeometry>
        </mxCell>
        <mxCell id="9LC1-C9B8ry4PlxiWx_H-12" value="" style="strokeWidth=2;html=1;shape=mxgraph.flowchart.decision;whiteSpace=wrap;labelBackgroundColor=none;fillColor=#56517E;strokeColor=#EEEEEE;fontColor=#FFFFFF;" parent="1" vertex="1">
          <mxGeometry x="348" y="902" width="100" height="100" as="geometry" />
        </mxCell>
        <mxCell id="9LC1-C9B8ry4PlxiWx_H-13" value="" style="endArrow=classic;html=1;rounded=0;entryX=0.5;entryY=0;entryDx=0;entryDy=0;labelBackgroundColor=none;strokeColor=#182E3E;fontColor=default;exitX=1;exitY=0.5;exitDx=0;exitDy=0;exitPerimeter=0;" parent="1" edge="1">
          <mxGeometry width="50" height="50" relative="1" as="geometry">
            <mxPoint x="448" y="952" as="sourcePoint" />
            <mxPoint x="692" y="1035" as="targetPoint" />
            <Array as="points">
              <mxPoint x="692" y="955" />
            </Array>
          </mxGeometry>
        </mxCell>
        <mxCell id="9LC1-C9B8ry4PlxiWx_H-14" value="Jumlah belanja &amp;gt; 200.000" style="text;strokeColor=#314354;align=center;fillColor=#647687;html=1;verticalAlign=middle;whiteSpace=wrap;rounded=0;labelBackgroundColor=none;fontColor=#ffffff;" parent="1" vertex="1">
          <mxGeometry x="489" y="913" width="170" height="30" as="geometry" />
        </mxCell>
        <mxCell id="9LC1-C9B8ry4PlxiWx_H-15" value="" style="endArrow=classic;html=1;rounded=0;exitX=0;exitY=0.5;exitDx=0;exitDy=0;exitPerimeter=0;labelBackgroundColor=none;strokeColor=#182E3E;fontColor=default;" parent="1" edge="1">
          <mxGeometry width="50" height="50" relative="1" as="geometry">
            <mxPoint x="348" y="952" as="sourcePoint" />
            <mxPoint x="151" y="1035" as="targetPoint" />
            <Array as="points">
              <mxPoint x="151" y="952" />
            </Array>
          </mxGeometry>
        </mxCell>
        <mxCell id="9LC1-C9B8ry4PlxiWx_H-16" value="Jumlah belanja &amp;lt; 200.000" style="text;strokeColor=#314354;align=center;fillColor=#647687;html=1;verticalAlign=middle;whiteSpace=wrap;rounded=0;labelBackgroundColor=none;fontColor=#ffffff;" parent="1" vertex="1">
          <mxGeometry x="148" y="914" width="170" height="30" as="geometry" />
        </mxCell>
        <mxCell id="9LC1-C9B8ry4PlxiWx_H-17" value="Diskon = Jumlah_Belanja * 0.05" style="rounded=1;whiteSpace=wrap;html=1;absoluteArcSize=1;arcSize=14;strokeWidth=2;labelBackgroundColor=none;fillColor=#56517E;strokeColor=#EEEEEE;fontColor=#FFFFFF;" parent="1" vertex="1">
          <mxGeometry x="592" y="1034" width="200" height="90" as="geometry" />
        </mxCell>
        <mxCell id="9LC1-C9B8ry4PlxiWx_H-18" value="Diskon = 0" style="rounded=1;whiteSpace=wrap;html=1;absoluteArcSize=1;arcSize=14;strokeWidth=2;labelBackgroundColor=none;fillColor=#56517E;strokeColor=#EEEEEE;fontColor=#FFFFFF;" parent="1" vertex="1">
          <mxGeometry x="50" y="1034" width="200" height="90" as="geometry" />
        </mxCell>
        <mxCell id="9LC1-C9B8ry4PlxiWx_H-19" value="" style="endArrow=classic;html=1;rounded=0;labelBackgroundColor=none;strokeColor=#182E3E;fontColor=default;exitX=0.5;exitY=1;exitDx=0;exitDy=0;entryX=0;entryY=0.5;entryDx=0;entryDy=0;entryPerimeter=0;" parent="1" edge="1">
          <mxGeometry width="50" height="50" relative="1" as="geometry">
            <mxPoint x="150" y="1125" as="sourcePoint" />
            <mxPoint x="348" y="1177" as="targetPoint" />
            <Array as="points">
              <mxPoint x="152" y="1177" />
            </Array>
          </mxGeometry>
        </mxCell>
        <mxCell id="9LC1-C9B8ry4PlxiWx_H-20" value="" style="endArrow=classic;html=1;rounded=0;exitX=0.5;exitY=1;exitDx=0;exitDy=0;labelBackgroundColor=none;strokeColor=#182E3E;fontColor=default;entryX=1;entryY=0.5;entryDx=0;entryDy=0;entryPerimeter=0;" parent="1" edge="1">
          <mxGeometry width="50" height="50" relative="1" as="geometry">
            <mxPoint x="692" y="1125" as="sourcePoint" />
            <mxPoint x="448" y="1177" as="targetPoint" />
            <Array as="points">
              <mxPoint x="692" y="1177" />
            </Array>
          </mxGeometry>
        </mxCell>
        <mxCell id="9LC1-C9B8ry4PlxiWx_H-21" value="Total Harga = jumlah_belanja - diskon" style="rounded=1;whiteSpace=wrap;html=1;absoluteArcSize=1;arcSize=14;strokeWidth=2;strokeColor=#EEEEEE;fontColor=#FFFFFF;fillColor=#56517E;" parent="1" vertex="1">
          <mxGeometry x="348" y="1129" width="100" height="100" as="geometry" />
        </mxCell>
        <mxCell id="9LC1-C9B8ry4PlxiWx_H-22" value="" style="endArrow=classic;html=1;rounded=0;labelBackgroundColor=none;strokeColor=#182E3E;fontColor=default;" parent="1" edge="1">
          <mxGeometry width="50" height="50" relative="1" as="geometry">
            <mxPoint x="398" y="1229" as="sourcePoint" />
            <mxPoint x="398" y="1266" as="targetPoint" />
            <Array as="points">
              <mxPoint x="398" y="1266" />
            </Array>
          </mxGeometry>
        </mxCell>
        <mxCell id="9LC1-C9B8ry4PlxiWx_H-23" value="Tampilkan total_harga,&lt;br&gt;tampilkan total_poin" style="shape=parallelogram;html=1;strokeWidth=2;perimeter=parallelogramPerimeter;whiteSpace=wrap;rounded=1;arcSize=12;size=0.23;strokeColor=#EEEEEE;fontColor=#FFFFFF;fillColor=#56517E;" parent="1" vertex="1">
          <mxGeometry x="285" y="1265" width="220" height="60" as="geometry" />
        </mxCell>
        <mxCell id="9LC1-C9B8ry4PlxiWx_H-24" value="" style="endArrow=classic;html=1;rounded=0;labelBackgroundColor=none;strokeColor=#182E3E;fontColor=default;" parent="1" edge="1">
          <mxGeometry width="50" height="50" relative="1" as="geometry">
            <mxPoint x="399" y="1325" as="sourcePoint" />
            <mxPoint x="399" y="1362" as="targetPoint" />
            <Array as="points">
              <mxPoint x="399" y="1362" />
            </Array>
          </mxGeometry>
        </mxCell>
        <mxCell id="9LC1-C9B8ry4PlxiWx_H-25" value="Selesai" style="rounded=1;whiteSpace=wrap;html=1;points=[[0,0,0,0,0],[0,0.25,0,0,0],[0,0.5,0,0,0],[0,0.75,0,0,0],[0,1,0,0,0],[0.25,0,0,0,0],[0.25,1,0,0,0],[0.5,0,0,0,0],[0.5,1,0,0,0],[0.75,0,0,0,0],[0.75,1,0,0,0],[1,0,0,0,0],[1,0.25,0,0,0],[1,0.5,0,0,0],[1,0.75,0,0,0],[1,1,0,0,0]];labelBackgroundColor=none;fillColor=#56517E;strokeColor=#EEEEEE;fontColor=#FFFFFF;" parent="1" vertex="1">
          <mxGeometry x="338" y="1364" width="120" height="60" as="geometry" />
        </mxCell>
        <mxCell id="9LC1-C9B8ry4PlxiWx_H-26" value="&lt;div style=&quot;text-align: left;&quot;&gt;&lt;span style=&quot;background-color: initial;&quot;&gt;&lt;font style=&quot;font-size: 14px;&quot;&gt;&lt;b style=&quot;&quot;&gt;NAMA : HARSONO&lt;/b&gt;&lt;/font&gt;&lt;/span&gt;&lt;/div&gt;&lt;div style=&quot;text-align: left;&quot;&gt;&lt;span style=&quot;background-color: initial;&quot;&gt;&lt;font size=&quot;3&quot;&gt;&lt;b&gt;NIM : 225611086&lt;/b&gt;&lt;/font&gt;&lt;/span&gt;&lt;/div&gt;&lt;div style=&quot;text-align: left;&quot;&gt;&lt;span style=&quot;background-color: initial;&quot;&gt;&lt;font size=&quot;3&quot;&gt;&lt;b&gt;PRODI : SISTEM INFORMASI / K1&lt;/b&gt;&lt;/font&gt;&lt;/span&gt;&lt;/div&gt;" style="rounded=0;whiteSpace=wrap;html=1;strokeColor=#EEEEEE;fontColor=#FFFFFF;fillColor=#56517E;" parent="1" vertex="1">
          <mxGeometry x="10" y="20" width="830" height="100" as="geometry" />
        </mxCell>
      </root>
    </mxGraphModel>
  </diagram>
  <diagram id="CXMc4fqLy6vXlb0ryuxM" name="praktikum2">
    <mxGraphModel dx="880" dy="470" grid="1" gridSize="10" guides="1" tooltips="1" connect="1" arrows="1" fold="1" page="1" pageScale="1" pageWidth="827" pageHeight="1169" background="#ffffff" math="0" shadow="0">
      <root>
        <mxCell id="0" />
        <mxCell id="1" parent="0" />
        <mxCell id="yrcFOGqPUY2NcoeynxUl-1" value="&lt;p style=&quot;margin-bottom:8.0pt;mso-add-space:auto;&lt;br/&gt;text-indent:-18.0pt;line-height:107%;mso-list:l0 level1 lfo1&quot; class=&quot;MsoListParagraph&quot;&gt;&lt;span style=&quot;font-size:12.0pt;&lt;br/&gt;line-height:107%&quot; lang=&quot;EN-US&quot;&gt;Inisialisasi value x, low, high dan mid&lt;/span&gt;&lt;/p&gt;" style="rounded=0;whiteSpace=wrap;html=1;labelBackgroundColor=none;fillColor=#21C0A5;strokeColor=#006658;fontColor=#5C5C5C;" parent="1" vertex="1">
          <mxGeometry x="330" y="20" width="200" height="60" as="geometry" />
        </mxCell>
        <mxCell id="yrcFOGqPUY2NcoeynxUl-2" value="&lt;p style=&quot;margin-bottom:8.0pt;mso-add-space:auto;&lt;br/&gt;text-indent:-18.0pt;line-height:107%;mso-list:l0 level1 lfo1&quot; class=&quot;MsoListParagraph&quot;&gt;&lt;span style=&quot;font-size:12.0pt;&lt;br/&gt;line-height:107%&quot; lang=&quot;EN-US&quot;&gt;x=0, low=0, high=n-1&lt;/span&gt;&lt;/p&gt;" style="rounded=0;whiteSpace=wrap;html=1;labelBackgroundColor=none;fillColor=#21C0A5;strokeColor=#006658;fontColor=#5C5C5C;" parent="1" vertex="1">
          <mxGeometry x="330" y="111" width="200" height="60" as="geometry" />
        </mxCell>
        <mxCell id="yrcFOGqPUY2NcoeynxUl-3" value="" style="endArrow=none;html=1;rounded=0;entryX=0.5;entryY=1;entryDx=0;entryDy=0;labelBackgroundColor=none;strokeColor=#006658;fontColor=default;" parent="1" source="yrcFOGqPUY2NcoeynxUl-2" target="yrcFOGqPUY2NcoeynxUl-1" edge="1">
          <mxGeometry width="50" height="50" relative="1" as="geometry">
            <mxPoint x="340" y="270" as="sourcePoint" />
            <mxPoint x="390" y="220" as="targetPoint" />
          </mxGeometry>
        </mxCell>
        <mxCell id="yrcFOGqPUY2NcoeynxUl-4" value="" style="endArrow=classic;html=1;rounded=0;exitX=0.5;exitY=1;exitDx=0;exitDy=0;entryX=0.5;entryY=0;entryDx=0;entryDy=0;labelBackgroundColor=none;strokeColor=#006658;fontColor=default;" parent="1" source="yrcFOGqPUY2NcoeynxUl-2" target="yrcFOGqPUY2NcoeynxUl-5" edge="1">
          <mxGeometry width="50" height="50" relative="1" as="geometry">
            <mxPoint x="390" y="250" as="sourcePoint" />
            <mxPoint x="430" y="190" as="targetPoint" />
          </mxGeometry>
        </mxCell>
        <mxCell id="yrcFOGqPUY2NcoeynxUl-5" value="" style="ellipse;whiteSpace=wrap;html=1;aspect=fixed;labelBackgroundColor=none;fillColor=#21C0A5;strokeColor=#006658;fontColor=#5C5C5C;" parent="1" vertex="1">
          <mxGeometry x="420" y="200" width="20" height="20" as="geometry" />
        </mxCell>
        <mxCell id="yrcFOGqPUY2NcoeynxUl-6" value="" style="endArrow=classic;html=1;rounded=0;exitX=0.5;exitY=1;exitDx=0;exitDy=0;entryX=0.5;entryY=0;entryDx=0;entryDy=0;entryPerimeter=0;labelBackgroundColor=none;strokeColor=#006658;fontColor=default;" parent="1" source="yrcFOGqPUY2NcoeynxUl-5" target="yrcFOGqPUY2NcoeynxUl-7" edge="1">
          <mxGeometry width="50" height="50" relative="1" as="geometry">
            <mxPoint x="440" y="181" as="sourcePoint" />
            <mxPoint x="430" y="240" as="targetPoint" />
          </mxGeometry>
        </mxCell>
        <mxCell id="yrcFOGqPUY2NcoeynxUl-7" value="&lt;font style=&quot;font-size: 10px;&quot;&gt;low &amp;lt; high&lt;/font&gt;" style="strokeWidth=2;html=1;shape=mxgraph.flowchart.decision;whiteSpace=wrap;labelBackgroundColor=none;fillColor=#21C0A5;strokeColor=#006658;fontColor=#5C5C5C;" parent="1" vertex="1">
          <mxGeometry x="395" y="240" width="70" height="50" as="geometry" />
        </mxCell>
        <mxCell id="yrcFOGqPUY2NcoeynxUl-8" value="" style="endArrow=classic;html=1;rounded=0;exitX=0;exitY=0.5;exitDx=0;exitDy=0;exitPerimeter=0;entryX=0.5;entryY=0;entryDx=0;entryDy=0;entryPerimeter=0;labelBackgroundColor=none;strokeColor=#006658;fontColor=default;" parent="1" source="yrcFOGqPUY2NcoeynxUl-7" target="yrcFOGqPUY2NcoeynxUl-9" edge="1">
          <mxGeometry width="50" height="50" relative="1" as="geometry">
            <mxPoint x="500" y="250" as="sourcePoint" />
            <mxPoint x="500" y="300" as="targetPoint" />
            <Array as="points">
              <mxPoint x="350" y="265" />
              <mxPoint x="320" y="265" />
            </Array>
          </mxGeometry>
        </mxCell>
        <mxCell id="yrcFOGqPUY2NcoeynxUl-9" value="&lt;font style=&quot;font-size: 10px;&quot;&gt;x &amp;lt; mid&lt;/font&gt;" style="strokeWidth=2;html=1;shape=mxgraph.flowchart.decision;whiteSpace=wrap;labelBackgroundColor=none;fillColor=#21C0A5;strokeColor=#006658;fontColor=#5C5C5C;" parent="1" vertex="1">
          <mxGeometry x="285" y="300" width="70" height="50" as="geometry" />
        </mxCell>
        <mxCell id="yrcFOGqPUY2NcoeynxUl-10" value="T" style="text;html=1;strokeColor=none;fillColor=none;align=center;verticalAlign=middle;whiteSpace=wrap;rounded=0;labelBackgroundColor=none;fontColor=#5C5C5C;" parent="1" vertex="1">
          <mxGeometry x="330" y="240" width="60" height="30" as="geometry" />
        </mxCell>
        <mxCell id="yrcFOGqPUY2NcoeynxUl-11" value="" style="endArrow=classic;html=1;rounded=0;exitX=1;exitY=0.5;exitDx=0;exitDy=0;exitPerimeter=0;entryX=0.5;entryY=0;entryDx=0;entryDy=0;labelBackgroundColor=none;strokeColor=#006658;fontColor=default;" parent="1" source="yrcFOGqPUY2NcoeynxUl-7" target="yrcFOGqPUY2NcoeynxUl-13" edge="1">
          <mxGeometry width="50" height="50" relative="1" as="geometry">
            <mxPoint x="546" y="275" as="sourcePoint" />
            <mxPoint x="550" y="310" as="targetPoint" />
            <Array as="points">
              <mxPoint x="550" y="265" />
            </Array>
          </mxGeometry>
        </mxCell>
        <mxCell id="yrcFOGqPUY2NcoeynxUl-12" value="F" style="text;html=1;strokeColor=none;fillColor=none;align=center;verticalAlign=middle;whiteSpace=wrap;rounded=0;labelBackgroundColor=none;fontColor=#5C5C5C;" parent="1" vertex="1">
          <mxGeometry x="480" y="235" width="60" height="40" as="geometry" />
        </mxCell>
        <mxCell id="yrcFOGqPUY2NcoeynxUl-13" value="&lt;font style=&quot;font-size: 10px;&quot;&gt;Return -1&lt;/font&gt;" style="rounded=0;whiteSpace=wrap;html=1;labelBackgroundColor=none;fillColor=#21C0A5;strokeColor=#006658;fontColor=#5C5C5C;" parent="1" vertex="1">
          <mxGeometry x="510" y="311" width="80" height="30" as="geometry" />
        </mxCell>
        <mxCell id="yrcFOGqPUY2NcoeynxUl-16" value="" style="endArrow=classic;html=1;rounded=0;exitX=1;exitY=0.5;exitDx=0;exitDy=0;entryX=1;entryY=0.5;entryDx=0;entryDy=0;labelBackgroundColor=none;strokeColor=#006658;fontColor=default;" parent="1" source="yrcFOGqPUY2NcoeynxUl-13" target="yrcFOGqPUY2NcoeynxUl-5" edge="1">
          <mxGeometry width="50" height="50" relative="1" as="geometry">
            <mxPoint x="600" y="275" as="sourcePoint" />
            <mxPoint x="685" y="321" as="targetPoint" />
            <Array as="points">
              <mxPoint x="630" y="326" />
              <mxPoint x="630" y="210" />
              <mxPoint x="570" y="210" />
            </Array>
          </mxGeometry>
        </mxCell>
        <mxCell id="yrcFOGqPUY2NcoeynxUl-17" value="" style="endArrow=classic;html=1;rounded=0;exitX=0;exitY=0.5;exitDx=0;exitDy=0;exitPerimeter=0;entryX=0.5;entryY=0;entryDx=0;entryDy=0;labelBackgroundColor=none;strokeColor=#006658;fontColor=default;" parent="1" source="yrcFOGqPUY2NcoeynxUl-9" target="yrcFOGqPUY2NcoeynxUl-21" edge="1">
          <mxGeometry width="50" height="50" relative="1" as="geometry">
            <mxPoint x="286" y="325" as="sourcePoint" />
            <mxPoint x="210" y="380" as="targetPoint" />
            <Array as="points">
              <mxPoint x="241" y="325" />
              <mxPoint x="210" y="325" />
            </Array>
          </mxGeometry>
        </mxCell>
        <mxCell id="yrcFOGqPUY2NcoeynxUl-18" value="T" style="text;html=1;strokeColor=none;fillColor=none;align=center;verticalAlign=middle;whiteSpace=wrap;rounded=0;labelBackgroundColor=none;fontColor=#5C5C5C;" parent="1" vertex="1">
          <mxGeometry x="221" y="300" width="60" height="30" as="geometry" />
        </mxCell>
        <mxCell id="yrcFOGqPUY2NcoeynxUl-19" value="" style="endArrow=classic;html=1;rounded=0;exitX=1;exitY=0.5;exitDx=0;exitDy=0;exitPerimeter=0;entryX=0.5;entryY=0;entryDx=0;entryDy=0;labelBackgroundColor=none;strokeColor=#006658;fontColor=default;" parent="1" source="yrcFOGqPUY2NcoeynxUl-9" target="yrcFOGqPUY2NcoeynxUl-22" edge="1">
          <mxGeometry width="50" height="50" relative="1" as="geometry">
            <mxPoint x="370" y="325" as="sourcePoint" />
            <mxPoint x="441" y="380" as="targetPoint" />
            <Array as="points">
              <mxPoint x="441" y="325" />
            </Array>
          </mxGeometry>
        </mxCell>
        <mxCell id="yrcFOGqPUY2NcoeynxUl-20" value="F" style="text;html=1;strokeColor=none;fillColor=none;align=center;verticalAlign=middle;whiteSpace=wrap;rounded=0;labelBackgroundColor=none;fontColor=#5C5C5C;" parent="1" vertex="1">
          <mxGeometry x="371" y="295" width="60" height="40" as="geometry" />
        </mxCell>
        <mxCell id="yrcFOGqPUY2NcoeynxUl-21" value="&lt;font style=&quot;font-size: 10px;&quot;&gt;High = mid – 1&lt;/font&gt;" style="rounded=0;whiteSpace=wrap;html=1;labelBackgroundColor=none;fillColor=#21C0A5;strokeColor=#006658;fontColor=#5C5C5C;" parent="1" vertex="1">
          <mxGeometry x="170" y="380" width="80" height="30" as="geometry" />
        </mxCell>
        <mxCell id="yrcFOGqPUY2NcoeynxUl-22" value="&lt;font style=&quot;font-size: 10px;&quot;&gt;Low = mid + 1&lt;/font&gt;" style="rounded=0;whiteSpace=wrap;html=1;labelBackgroundColor=none;fillColor=#21C0A5;strokeColor=#006658;fontColor=#5C5C5C;" parent="1" vertex="1">
          <mxGeometry x="401" y="380" width="80" height="30" as="geometry" />
        </mxCell>
        <mxCell id="yrcFOGqPUY2NcoeynxUl-24" value="" style="endArrow=classic;html=1;rounded=0;exitX=0.5;exitY=1;exitDx=0;exitDy=0;entryX=0;entryY=0.5;entryDx=0;entryDy=0;labelBackgroundColor=none;strokeColor=#006658;fontColor=default;" parent="1" source="yrcFOGqPUY2NcoeynxUl-21" target="yrcFOGqPUY2NcoeynxUl-26" edge="1">
          <mxGeometry width="50" height="50" relative="1" as="geometry">
            <mxPoint x="295" y="451" as="sourcePoint" />
            <mxPoint x="290" y="451" as="targetPoint" />
            <Array as="points">
              <mxPoint x="210" y="450" />
              <mxPoint x="220" y="450" />
            </Array>
          </mxGeometry>
        </mxCell>
        <mxCell id="yrcFOGqPUY2NcoeynxUl-25" value="" style="endArrow=classic;html=1;rounded=0;exitX=0.487;exitY=1;exitDx=0;exitDy=0;exitPerimeter=0;entryX=1;entryY=0.5;entryDx=0;entryDy=0;labelBackgroundColor=none;strokeColor=#006658;fontColor=default;" parent="1" source="yrcFOGqPUY2NcoeynxUl-22" target="yrcFOGqPUY2NcoeynxUl-26" edge="1">
          <mxGeometry width="50" height="50" relative="1" as="geometry">
            <mxPoint x="365" y="451" as="sourcePoint" />
            <mxPoint x="340" y="450" as="targetPoint" />
            <Array as="points">
              <mxPoint x="440" y="450" />
            </Array>
          </mxGeometry>
        </mxCell>
        <mxCell id="yrcFOGqPUY2NcoeynxUl-26" value="" style="ellipse;whiteSpace=wrap;html=1;aspect=fixed;labelBackgroundColor=none;fillColor=#21C0A5;strokeColor=#006658;fontColor=#5C5C5C;" parent="1" vertex="1">
          <mxGeometry x="310" y="440" width="20" height="20" as="geometry" />
        </mxCell>
        <mxCell id="yrcFOGqPUY2NcoeynxUl-27" value="&lt;font style=&quot;font-size: 10px;&quot;&gt;Return mid&lt;/font&gt;" style="rounded=0;whiteSpace=wrap;html=1;labelBackgroundColor=none;fillColor=#21C0A5;strokeColor=#006658;fontColor=#5C5C5C;" parent="1" vertex="1">
          <mxGeometry x="280" y="501" width="80" height="30" as="geometry" />
        </mxCell>
        <mxCell id="yrcFOGqPUY2NcoeynxUl-28" value="" style="endArrow=classic;html=1;rounded=0;exitX=0.5;exitY=1;exitDx=0;exitDy=0;entryX=0.5;entryY=0;entryDx=0;entryDy=0;labelBackgroundColor=none;strokeColor=#006658;fontColor=default;" parent="1" source="yrcFOGqPUY2NcoeynxUl-26" target="yrcFOGqPUY2NcoeynxUl-27" edge="1">
          <mxGeometry width="50" height="50" relative="1" as="geometry">
            <mxPoint x="440" y="474" as="sourcePoint" />
            <mxPoint x="320" y="500" as="targetPoint" />
          </mxGeometry>
        </mxCell>
        <mxCell id="yrcFOGqPUY2NcoeynxUl-30" value="1" style="text;html=1;strokeColor=none;fillColor=none;align=center;verticalAlign=middle;whiteSpace=wrap;rounded=0;labelBackgroundColor=none;fontColor=#5C5C5C;" parent="1" vertex="1">
          <mxGeometry x="520" y="35" width="60" height="30" as="geometry" />
        </mxCell>
        <mxCell id="yrcFOGqPUY2NcoeynxUl-31" value="2" style="text;html=1;strokeColor=none;fillColor=none;align=center;verticalAlign=middle;whiteSpace=wrap;rounded=0;labelBackgroundColor=none;fontColor=#5C5C5C;" parent="1" vertex="1">
          <mxGeometry x="520" y="126" width="60" height="30" as="geometry" />
        </mxCell>
        <mxCell id="yrcFOGqPUY2NcoeynxUl-32" value="3" style="text;html=1;strokeColor=none;fillColor=none;align=center;verticalAlign=middle;whiteSpace=wrap;rounded=0;labelBackgroundColor=none;fontColor=#5C5C5C;" parent="1" vertex="1">
          <mxGeometry x="424" y="231" width="60" height="30" as="geometry" />
        </mxCell>
        <mxCell id="yrcFOGqPUY2NcoeynxUl-33" value="4" style="text;html=1;strokeColor=none;fillColor=none;align=center;verticalAlign=middle;whiteSpace=wrap;rounded=0;labelBackgroundColor=none;fontColor=#5C5C5C;" parent="1" vertex="1">
          <mxGeometry x="265" y="293" width="60" height="30" as="geometry" />
        </mxCell>
        <mxCell id="yrcFOGqPUY2NcoeynxUl-34" value="5" style="text;html=1;strokeColor=none;fillColor=none;align=center;verticalAlign=middle;whiteSpace=wrap;rounded=0;labelBackgroundColor=none;fontColor=#5C5C5C;" parent="1" vertex="1">
          <mxGeometry x="230" y="380" width="60" height="30" as="geometry" />
        </mxCell>
        <mxCell id="yrcFOGqPUY2NcoeynxUl-35" value="6" style="text;html=1;strokeColor=none;fillColor=none;align=center;verticalAlign=middle;whiteSpace=wrap;rounded=0;labelBackgroundColor=none;fontColor=#5C5C5C;" parent="1" vertex="1">
          <mxGeometry x="461" y="381" width="60" height="30" as="geometry" />
        </mxCell>
        <mxCell id="yrcFOGqPUY2NcoeynxUl-36" value="7" style="text;html=1;strokeColor=none;fillColor=none;align=center;verticalAlign=middle;whiteSpace=wrap;rounded=0;labelBackgroundColor=none;fontColor=#5C5C5C;" parent="1" vertex="1">
          <mxGeometry x="471" y="311" width="60" height="30" as="geometry" />
        </mxCell>
        <mxCell id="yrcFOGqPUY2NcoeynxUl-37" value="8" style="text;html=1;strokeColor=none;fillColor=none;align=center;verticalAlign=middle;whiteSpace=wrap;rounded=0;labelBackgroundColor=none;fontColor=#5C5C5C;" parent="1" vertex="1">
          <mxGeometry x="341" y="501" width="60" height="30" as="geometry" />
        </mxCell>
      </root>
    </mxGraphModel>
  </diagram>
  <diagram name="praktikum-3" id="rKd1xTnZFKVhtouJJt8w">
    <mxGraphModel dx="1354" dy="723" grid="1" gridSize="10" guides="1" tooltips="1" connect="1" arrows="1" fold="1" page="1" pageScale="1" pageWidth="827" pageHeight="1169" background="#ffffff" math="0" shadow="0">
      <root>
        <mxCell id="m9SpIBA4ucCnWhKYg_Qk-0" />
        <mxCell id="m9SpIBA4ucCnWhKYg_Qk-1" parent="m9SpIBA4ucCnWhKYg_Qk-0" />
        <mxCell id="m9SpIBA4ucCnWhKYg_Qk-2" value="&lt;p style=&quot;margin-bottom:8.0pt;mso-add-space:auto;&lt;br/&gt;text-indent:-18.0pt;line-height:107%;mso-list:l0 level1 lfo1&quot; class=&quot;MsoListParagraph&quot;&gt;&lt;span style=&quot;font-size:12.0pt;&lt;br/&gt;line-height:107%&quot; lang=&quot;EN-US&quot;&gt;Inisialisasi nil dan nil_huruf&lt;/span&gt;&lt;/p&gt;" style="rounded=0;whiteSpace=wrap;html=1;labelBackgroundColor=none;fillColor=#21C0A5;strokeColor=#006658;fontColor=#5C5C5C;" parent="m9SpIBA4ucCnWhKYg_Qk-1" vertex="1">
          <mxGeometry x="330" y="20" width="200" height="60" as="geometry" />
        </mxCell>
        <mxCell id="m9SpIBA4ucCnWhKYg_Qk-3" value="&lt;p style=&quot;margin-bottom:8.0pt;mso-add-space:auto;&lt;br/&gt;text-indent:-18.0pt;line-height:107%;mso-list:l0 level1 lfo1&quot; class=&quot;MsoListParagraph&quot;&gt;&lt;span style=&quot;font-size:12.0pt;&lt;br/&gt;line-height:107%&quot; lang=&quot;EN-US&quot;&gt;pemberian nillai nil dan nilai_huruf&lt;/span&gt;&lt;/p&gt;" style="rounded=0;whiteSpace=wrap;html=1;labelBackgroundColor=none;fillColor=#21C0A5;strokeColor=#006658;fontColor=#5C5C5C;" parent="m9SpIBA4ucCnWhKYg_Qk-1" vertex="1">
          <mxGeometry x="330" y="111" width="200" height="60" as="geometry" />
        </mxCell>
        <mxCell id="m9SpIBA4ucCnWhKYg_Qk-4" value="" style="endArrow=none;html=1;rounded=0;entryX=0.5;entryY=1;entryDx=0;entryDy=0;labelBackgroundColor=none;strokeColor=#006658;fontColor=default;" parent="m9SpIBA4ucCnWhKYg_Qk-1" source="m9SpIBA4ucCnWhKYg_Qk-3" target="m9SpIBA4ucCnWhKYg_Qk-2" edge="1">
          <mxGeometry width="50" height="50" relative="1" as="geometry">
            <mxPoint x="340" y="270" as="sourcePoint" />
            <mxPoint x="390" y="220" as="targetPoint" />
          </mxGeometry>
        </mxCell>
        <mxCell id="m9SpIBA4ucCnWhKYg_Qk-5" value="" style="endArrow=classic;html=1;rounded=0;exitX=0.5;exitY=1;exitDx=0;exitDy=0;entryX=0.5;entryY=0;entryDx=0;entryDy=0;labelBackgroundColor=none;strokeColor=#006658;fontColor=default;" parent="m9SpIBA4ucCnWhKYg_Qk-1" source="m9SpIBA4ucCnWhKYg_Qk-3" target="m9SpIBA4ucCnWhKYg_Qk-6" edge="1">
          <mxGeometry width="50" height="50" relative="1" as="geometry">
            <mxPoint x="390" y="250" as="sourcePoint" />
            <mxPoint x="430" y="190" as="targetPoint" />
          </mxGeometry>
        </mxCell>
        <mxCell id="m9SpIBA4ucCnWhKYg_Qk-6" value="" style="ellipse;whiteSpace=wrap;html=1;aspect=fixed;labelBackgroundColor=none;fillColor=#21C0A5;strokeColor=#006658;fontColor=#5C5C5C;" parent="m9SpIBA4ucCnWhKYg_Qk-1" vertex="1">
          <mxGeometry x="420" y="200" width="20" height="20" as="geometry" />
        </mxCell>
        <mxCell id="m9SpIBA4ucCnWhKYg_Qk-7" value="" style="endArrow=classic;html=1;rounded=0;exitX=0.5;exitY=1;exitDx=0;exitDy=0;entryX=0.5;entryY=0;entryDx=0;entryDy=0;entryPerimeter=0;labelBackgroundColor=none;strokeColor=#006658;fontColor=default;" parent="m9SpIBA4ucCnWhKYg_Qk-1" source="m9SpIBA4ucCnWhKYg_Qk-6" target="m9SpIBA4ucCnWhKYg_Qk-8" edge="1">
          <mxGeometry width="50" height="50" relative="1" as="geometry">
            <mxPoint x="440" y="181" as="sourcePoint" />
            <mxPoint x="430" y="240" as="targetPoint" />
          </mxGeometry>
        </mxCell>
        <mxCell id="m9SpIBA4ucCnWhKYg_Qk-8" value="&lt;font style=&quot;font-size: 10px;&quot;&gt;nil &amp;gt;=0 &lt;br&gt;&amp;nbsp;dan &lt;br&gt;&amp;lt;=20&lt;/font&gt;" style="strokeWidth=2;html=1;shape=mxgraph.flowchart.decision;whiteSpace=wrap;labelBackgroundColor=none;fillColor=#21C0A5;strokeColor=#006658;fontColor=#5C5C5C;" parent="m9SpIBA4ucCnWhKYg_Qk-1" vertex="1">
          <mxGeometry x="377" y="235" width="105" height="60" as="geometry" />
        </mxCell>
        <mxCell id="m9SpIBA4ucCnWhKYg_Qk-9" value="" style="endArrow=classic;html=1;rounded=0;exitX=0;exitY=0.5;exitDx=0;exitDy=0;exitPerimeter=0;entryX=0.5;entryY=0;entryDx=0;entryDy=0;entryPerimeter=0;labelBackgroundColor=none;strokeColor=#006658;fontColor=default;" parent="m9SpIBA4ucCnWhKYg_Qk-1" source="m9SpIBA4ucCnWhKYg_Qk-8" target="m9SpIBA4ucCnWhKYg_Qk-10" edge="1">
          <mxGeometry width="50" height="50" relative="1" as="geometry">
            <mxPoint x="500" y="250" as="sourcePoint" />
            <mxPoint x="500" y="300" as="targetPoint" />
            <Array as="points">
              <mxPoint x="350" y="265" />
              <mxPoint x="320" y="265" />
            </Array>
          </mxGeometry>
        </mxCell>
        <mxCell id="m9SpIBA4ucCnWhKYg_Qk-10" value="&lt;font style=&quot;font-size: 9px;&quot;&gt;nil &amp;gt;=20&lt;br style=&quot;border-color: var(--border-color);&quot;&gt;&amp;nbsp;dan&lt;br style=&quot;border-color: var(--border-color);&quot;&gt;&amp;lt;=40&lt;/font&gt;" style="strokeWidth=2;html=1;shape=mxgraph.flowchart.decision;whiteSpace=wrap;labelBackgroundColor=none;fillColor=#21C0A5;strokeColor=#006658;fontColor=#5C5C5C;" parent="m9SpIBA4ucCnWhKYg_Qk-1" vertex="1">
          <mxGeometry x="265" y="295" width="110" height="60" as="geometry" />
        </mxCell>
        <mxCell id="m9SpIBA4ucCnWhKYg_Qk-11" value="F" style="text;html=1;strokeColor=none;fillColor=none;align=center;verticalAlign=middle;whiteSpace=wrap;rounded=0;labelBackgroundColor=none;fontColor=#5C5C5C;" parent="m9SpIBA4ucCnWhKYg_Qk-1" vertex="1">
          <mxGeometry x="330" y="240" width="60" height="30" as="geometry" />
        </mxCell>
        <mxCell id="m9SpIBA4ucCnWhKYg_Qk-12" value="" style="endArrow=classic;html=1;rounded=0;exitX=1;exitY=0.5;exitDx=0;exitDy=0;exitPerimeter=0;entryX=0.5;entryY=0;entryDx=0;entryDy=0;labelBackgroundColor=none;strokeColor=#006658;fontColor=default;" parent="m9SpIBA4ucCnWhKYg_Qk-1" source="m9SpIBA4ucCnWhKYg_Qk-8" target="m9SpIBA4ucCnWhKYg_Qk-14" edge="1">
          <mxGeometry width="50" height="50" relative="1" as="geometry">
            <mxPoint x="546" y="275" as="sourcePoint" />
            <mxPoint x="550" y="310" as="targetPoint" />
            <Array as="points">
              <mxPoint x="550" y="265" />
            </Array>
          </mxGeometry>
        </mxCell>
        <mxCell id="m9SpIBA4ucCnWhKYg_Qk-13" value="T" style="text;html=1;strokeColor=none;fillColor=none;align=center;verticalAlign=middle;whiteSpace=wrap;rounded=0;labelBackgroundColor=none;fontColor=#5C5C5C;" parent="m9SpIBA4ucCnWhKYg_Qk-1" vertex="1">
          <mxGeometry x="480" y="235" width="60" height="40" as="geometry" />
        </mxCell>
        <mxCell id="m9SpIBA4ucCnWhKYg_Qk-14" value="&lt;font style=&quot;font-size: 10px;&quot;&gt;nil_huruf_E&lt;/font&gt;" style="rounded=0;whiteSpace=wrap;html=1;labelBackgroundColor=none;fillColor=#21C0A5;strokeColor=#006658;fontColor=#5C5C5C;" parent="m9SpIBA4ucCnWhKYg_Qk-1" vertex="1">
          <mxGeometry x="510" y="311" width="80" height="30" as="geometry" />
        </mxCell>
        <mxCell id="m9SpIBA4ucCnWhKYg_Qk-15" value="" style="endArrow=classic;html=1;rounded=0;exitX=1;exitY=0.5;exitDx=0;exitDy=0;entryX=1;entryY=0.5;entryDx=0;entryDy=0;labelBackgroundColor=none;strokeColor=#006658;fontColor=default;" parent="m9SpIBA4ucCnWhKYg_Qk-1" source="m9SpIBA4ucCnWhKYg_Qk-14" target="m9SpIBA4ucCnWhKYg_Qk-6" edge="1">
          <mxGeometry width="50" height="50" relative="1" as="geometry">
            <mxPoint x="600" y="275" as="sourcePoint" />
            <mxPoint x="685" y="321" as="targetPoint" />
            <Array as="points">
              <mxPoint x="630" y="326" />
              <mxPoint x="660" y="326" />
              <mxPoint x="660" y="270" />
              <mxPoint x="660" y="210" />
              <mxPoint x="570" y="210" />
            </Array>
          </mxGeometry>
        </mxCell>
        <mxCell id="m9SpIBA4ucCnWhKYg_Qk-16" value="" style="endArrow=classic;html=1;rounded=0;exitX=0;exitY=0.5;exitDx=0;exitDy=0;exitPerimeter=0;entryX=0.5;entryY=0;entryDx=0;entryDy=0;labelBackgroundColor=none;strokeColor=#006658;fontColor=default;" parent="m9SpIBA4ucCnWhKYg_Qk-1" source="m9SpIBA4ucCnWhKYg_Qk-10" target="m9SpIBA4ucCnWhKYg_Qk-20" edge="1">
          <mxGeometry width="50" height="50" relative="1" as="geometry">
            <mxPoint x="286" y="325" as="sourcePoint" />
            <mxPoint x="210" y="380" as="targetPoint" />
            <Array as="points">
              <mxPoint x="241" y="325" />
              <mxPoint x="210" y="325" />
            </Array>
          </mxGeometry>
        </mxCell>
        <mxCell id="m9SpIBA4ucCnWhKYg_Qk-17" value="T" style="text;html=1;strokeColor=none;fillColor=none;align=center;verticalAlign=middle;whiteSpace=wrap;rounded=0;labelBackgroundColor=none;fontColor=#5C5C5C;" parent="m9SpIBA4ucCnWhKYg_Qk-1" vertex="1">
          <mxGeometry x="221" y="300" width="60" height="30" as="geometry" />
        </mxCell>
        <mxCell id="m9SpIBA4ucCnWhKYg_Qk-18" value="" style="endArrow=classic;html=1;rounded=0;exitX=1;exitY=0.5;exitDx=0;exitDy=0;exitPerimeter=0;entryX=0.5;entryY=0;entryDx=0;entryDy=0;labelBackgroundColor=none;strokeColor=#006658;fontColor=default;entryPerimeter=0;" parent="m9SpIBA4ucCnWhKYg_Qk-1" source="m9SpIBA4ucCnWhKYg_Qk-10" target="mMk8b1G9N71XOGg3s5Ot-0" edge="1">
          <mxGeometry width="50" height="50" relative="1" as="geometry">
            <mxPoint x="370" y="325" as="sourcePoint" />
            <mxPoint x="441" y="380" as="targetPoint" />
            <Array as="points">
              <mxPoint x="441" y="325" />
            </Array>
          </mxGeometry>
        </mxCell>
        <mxCell id="m9SpIBA4ucCnWhKYg_Qk-19" value="F" style="text;html=1;strokeColor=none;fillColor=none;align=center;verticalAlign=middle;whiteSpace=wrap;rounded=0;labelBackgroundColor=none;fontColor=#5C5C5C;" parent="m9SpIBA4ucCnWhKYg_Qk-1" vertex="1">
          <mxGeometry x="371" y="295" width="60" height="40" as="geometry" />
        </mxCell>
        <mxCell id="m9SpIBA4ucCnWhKYg_Qk-20" value="nil_huruf: D" style="rounded=0;whiteSpace=wrap;html=1;labelBackgroundColor=none;fillColor=#21C0A5;strokeColor=#006658;fontColor=#5C5C5C;" parent="m9SpIBA4ucCnWhKYg_Qk-1" vertex="1">
          <mxGeometry x="170" y="380" width="80" height="30" as="geometry" />
        </mxCell>
        <mxCell id="m9SpIBA4ucCnWhKYg_Qk-22" value="" style="endArrow=classic;html=1;rounded=0;exitX=0.5;exitY=1;exitDx=0;exitDy=0;entryX=0;entryY=0.5;entryDx=0;entryDy=0;labelBackgroundColor=none;strokeColor=#006658;fontColor=default;" parent="m9SpIBA4ucCnWhKYg_Qk-1" source="m9SpIBA4ucCnWhKYg_Qk-20" target="m9SpIBA4ucCnWhKYg_Qk-6" edge="1">
          <mxGeometry width="50" height="50" relative="1" as="geometry">
            <mxPoint x="295" y="451" as="sourcePoint" />
            <mxPoint x="290" y="451" as="targetPoint" />
            <Array as="points">
              <mxPoint x="210" y="450" />
              <mxPoint x="160" y="450" />
              <mxPoint x="160" y="340" />
              <mxPoint x="160" y="210" />
            </Array>
          </mxGeometry>
        </mxCell>
        <mxCell id="m9SpIBA4ucCnWhKYg_Qk-27" value="1" style="text;html=1;strokeColor=none;fillColor=none;align=center;verticalAlign=middle;whiteSpace=wrap;rounded=0;labelBackgroundColor=none;fontColor=#5C5C5C;" parent="m9SpIBA4ucCnWhKYg_Qk-1" vertex="1">
          <mxGeometry x="520" y="35" width="60" height="30" as="geometry" />
        </mxCell>
        <mxCell id="m9SpIBA4ucCnWhKYg_Qk-28" value="2" style="text;html=1;strokeColor=none;fillColor=none;align=center;verticalAlign=middle;whiteSpace=wrap;rounded=0;labelBackgroundColor=none;fontColor=#5C5C5C;" parent="m9SpIBA4ucCnWhKYg_Qk-1" vertex="1">
          <mxGeometry x="520" y="126" width="60" height="30" as="geometry" />
        </mxCell>
        <mxCell id="m9SpIBA4ucCnWhKYg_Qk-29" value="3" style="text;html=1;strokeColor=none;fillColor=none;align=center;verticalAlign=middle;whiteSpace=wrap;rounded=0;labelBackgroundColor=none;fontColor=#5C5C5C;" parent="m9SpIBA4ucCnWhKYg_Qk-1" vertex="1">
          <mxGeometry x="424" y="227" width="64" height="29" as="geometry" />
        </mxCell>
        <mxCell id="m9SpIBA4ucCnWhKYg_Qk-30" value="5" style="text;html=1;strokeColor=none;fillColor=none;align=center;verticalAlign=middle;whiteSpace=wrap;rounded=0;labelBackgroundColor=none;fontColor=#5C5C5C;" parent="m9SpIBA4ucCnWhKYg_Qk-1" vertex="1">
          <mxGeometry x="252" y="293" width="65" height="27" as="geometry" />
        </mxCell>
        <mxCell id="m9SpIBA4ucCnWhKYg_Qk-31" value="6" style="text;html=1;strokeColor=none;fillColor=none;align=center;verticalAlign=middle;whiteSpace=wrap;rounded=0;labelBackgroundColor=none;fontColor=#5C5C5C;" parent="m9SpIBA4ucCnWhKYg_Qk-1" vertex="1">
          <mxGeometry x="230" y="380" width="60" height="30" as="geometry" />
        </mxCell>
        <mxCell id="m9SpIBA4ucCnWhKYg_Qk-32" value="7" style="text;html=1;strokeColor=none;fillColor=none;align=center;verticalAlign=middle;whiteSpace=wrap;rounded=0;labelBackgroundColor=none;fontColor=#5C5C5C;" parent="m9SpIBA4ucCnWhKYg_Qk-1" vertex="1">
          <mxGeometry x="461" y="370" width="60" height="30" as="geometry" />
        </mxCell>
        <mxCell id="m9SpIBA4ucCnWhKYg_Qk-33" value="4" style="text;html=1;strokeColor=none;fillColor=none;align=center;verticalAlign=middle;whiteSpace=wrap;rounded=0;labelBackgroundColor=none;fontColor=#5C5C5C;" parent="m9SpIBA4ucCnWhKYg_Qk-1" vertex="1">
          <mxGeometry x="471" y="311" width="60" height="30" as="geometry" />
        </mxCell>
        <mxCell id="mMk8b1G9N71XOGg3s5Ot-0" value="&lt;font style=&quot;font-size: 9px;&quot;&gt;nil &amp;gt;=40&lt;br style=&quot;border-color: var(--border-color);&quot;&gt;&amp;nbsp;dan&lt;br style=&quot;border-color: var(--border-color);&quot;&gt;&amp;lt;=60&lt;/font&gt;" style="strokeWidth=2;html=1;shape=mxgraph.flowchart.decision;whiteSpace=wrap;labelBackgroundColor=none;fillColor=#21C0A5;strokeColor=#006658;fontColor=#5C5C5C;" vertex="1" parent="m9SpIBA4ucCnWhKYg_Qk-1">
          <mxGeometry x="385" y="367" width="110" height="60" as="geometry" />
        </mxCell>
        <mxCell id="mMk8b1G9N71XOGg3s5Ot-1" value="" style="endArrow=classic;html=1;rounded=0;labelBackgroundColor=none;strokeColor=#006658;fontColor=default;exitX=0;exitY=0.5;exitDx=0;exitDy=0;exitPerimeter=0;entryX=0.5;entryY=0;entryDx=0;entryDy=0;" edge="1" parent="m9SpIBA4ucCnWhKYg_Qk-1" source="mMk8b1G9N71XOGg3s5Ot-0" target="mMk8b1G9N71XOGg3s5Ot-4">
          <mxGeometry width="50" height="50" relative="1" as="geometry">
            <mxPoint x="380" y="397" as="sourcePoint" />
            <mxPoint x="325" y="440" as="targetPoint" />
            <Array as="points">
              <mxPoint x="356" y="397" />
              <mxPoint x="325" y="397" />
            </Array>
          </mxGeometry>
        </mxCell>
        <mxCell id="mMk8b1G9N71XOGg3s5Ot-2" value="T" style="text;html=1;strokeColor=none;fillColor=none;align=center;verticalAlign=middle;whiteSpace=wrap;rounded=0;labelBackgroundColor=none;fontColor=#5C5C5C;" vertex="1" parent="m9SpIBA4ucCnWhKYg_Qk-1">
          <mxGeometry x="330" y="372" width="60" height="30" as="geometry" />
        </mxCell>
        <mxCell id="mMk8b1G9N71XOGg3s5Ot-4" value="nil_huruf: C" style="rounded=0;whiteSpace=wrap;html=1;labelBackgroundColor=none;fillColor=#21C0A5;strokeColor=#006658;fontColor=#5C5C5C;" vertex="1" parent="m9SpIBA4ucCnWhKYg_Qk-1">
          <mxGeometry x="285" y="453" width="80" height="30" as="geometry" />
        </mxCell>
        <mxCell id="mMk8b1G9N71XOGg3s5Ot-5" value="" style="endArrow=classic;html=1;rounded=0;exitX=0.5;exitY=1;exitDx=0;exitDy=0;labelBackgroundColor=none;strokeColor=#006658;fontColor=default;" edge="1" parent="m9SpIBA4ucCnWhKYg_Qk-1" source="mMk8b1G9N71XOGg3s5Ot-4">
          <mxGeometry width="50" height="50" relative="1" as="geometry">
            <mxPoint x="410" y="524" as="sourcePoint" />
            <mxPoint x="420" y="210" as="targetPoint" />
            <Array as="points">
              <mxPoint x="325" y="523" />
              <mxPoint x="275" y="523" />
              <mxPoint x="160" y="523" />
              <mxPoint x="160" y="340" />
              <mxPoint x="160" y="210" />
            </Array>
          </mxGeometry>
        </mxCell>
        <mxCell id="mMk8b1G9N71XOGg3s5Ot-6" value="8" style="text;html=1;strokeColor=none;fillColor=none;align=center;verticalAlign=middle;whiteSpace=wrap;rounded=0;labelBackgroundColor=none;fontColor=#5C5C5C;" vertex="1" parent="m9SpIBA4ucCnWhKYg_Qk-1">
          <mxGeometry x="345" y="453" width="60" height="30" as="geometry" />
        </mxCell>
        <mxCell id="mMk8b1G9N71XOGg3s5Ot-7" value="" style="endArrow=classic;html=1;rounded=0;exitX=1;exitY=0.5;exitDx=0;exitDy=0;exitPerimeter=0;entryX=0.5;entryY=0;entryDx=0;entryDy=0;labelBackgroundColor=none;strokeColor=#006658;fontColor=default;entryPerimeter=0;" edge="1" parent="m9SpIBA4ucCnWhKYg_Qk-1" target="mMk8b1G9N71XOGg3s5Ot-9" source="mMk8b1G9N71XOGg3s5Ot-0">
          <mxGeometry width="50" height="50" relative="1" as="geometry">
            <mxPoint x="499" y="397" as="sourcePoint" />
            <mxPoint x="564" y="439" as="targetPoint" />
            <Array as="points">
              <mxPoint x="565" y="397" />
            </Array>
          </mxGeometry>
        </mxCell>
        <mxCell id="mMk8b1G9N71XOGg3s5Ot-8" value="F" style="text;html=1;strokeColor=none;fillColor=none;align=center;verticalAlign=middle;whiteSpace=wrap;rounded=0;labelBackgroundColor=none;fontColor=#5C5C5C;" vertex="1" parent="m9SpIBA4ucCnWhKYg_Qk-1">
          <mxGeometry x="500" y="367" width="60" height="40" as="geometry" />
        </mxCell>
        <mxCell id="mMk8b1G9N71XOGg3s5Ot-9" value="&lt;font style=&quot;font-size: 9px;&quot;&gt;nil &amp;gt;=60&lt;br style=&quot;border-color: var(--border-color);&quot;&gt;&amp;nbsp;dan&lt;br style=&quot;border-color: var(--border-color);&quot;&gt;&amp;lt;=80&lt;/font&gt;" style="strokeWidth=2;html=1;shape=mxgraph.flowchart.decision;whiteSpace=wrap;labelBackgroundColor=none;fillColor=#21C0A5;strokeColor=#006658;fontColor=#5C5C5C;" vertex="1" parent="m9SpIBA4ucCnWhKYg_Qk-1">
          <mxGeometry x="510" y="440" width="110" height="60" as="geometry" />
        </mxCell>
        <mxCell id="mMk8b1G9N71XOGg3s5Ot-14" value="9" style="text;html=1;strokeColor=none;fillColor=none;align=center;verticalAlign=middle;whiteSpace=wrap;rounded=0;labelBackgroundColor=none;fontColor=#5C5C5C;" vertex="1" parent="m9SpIBA4ucCnWhKYg_Qk-1">
          <mxGeometry x="570" y="433" width="60" height="30" as="geometry" />
        </mxCell>
        <mxCell id="mMk8b1G9N71XOGg3s5Ot-15" value="" style="endArrow=classic;html=1;rounded=0;labelBackgroundColor=none;strokeColor=#006658;fontColor=default;entryX=0.5;entryY=0;entryDx=0;entryDy=0;exitX=0.967;exitY=0.833;exitDx=0;exitDy=0;exitPerimeter=0;" edge="1" parent="m9SpIBA4ucCnWhKYg_Qk-1" target="mMk8b1G9N71XOGg3s5Ot-17" source="mMk8b1G9N71XOGg3s5Ot-16">
          <mxGeometry width="50" height="50" relative="1" as="geometry">
            <mxPoint x="510" y="470" as="sourcePoint" />
            <mxPoint x="447" y="513" as="targetPoint" />
            <Array as="points">
              <mxPoint x="478" y="470" />
              <mxPoint x="447" y="470" />
            </Array>
          </mxGeometry>
        </mxCell>
        <mxCell id="mMk8b1G9N71XOGg3s5Ot-16" value="T" style="text;html=1;strokeColor=none;fillColor=none;align=center;verticalAlign=middle;whiteSpace=wrap;rounded=0;labelBackgroundColor=none;fontColor=#5C5C5C;" vertex="1" parent="m9SpIBA4ucCnWhKYg_Qk-1">
          <mxGeometry x="452" y="445" width="60" height="30" as="geometry" />
        </mxCell>
        <mxCell id="mMk8b1G9N71XOGg3s5Ot-17" value="nil_huruf: B" style="rounded=0;whiteSpace=wrap;html=1;labelBackgroundColor=none;fillColor=#21C0A5;strokeColor=#006658;fontColor=#5C5C5C;" vertex="1" parent="m9SpIBA4ucCnWhKYg_Qk-1">
          <mxGeometry x="407" y="526" width="80" height="30" as="geometry" />
        </mxCell>
        <mxCell id="mMk8b1G9N71XOGg3s5Ot-18" value="10" style="text;html=1;strokeColor=none;fillColor=none;align=center;verticalAlign=middle;whiteSpace=wrap;rounded=0;labelBackgroundColor=none;fontColor=#5C5C5C;" vertex="1" parent="m9SpIBA4ucCnWhKYg_Qk-1">
          <mxGeometry x="470" y="526" width="57" height="30" as="geometry" />
        </mxCell>
        <mxCell id="mMk8b1G9N71XOGg3s5Ot-19" value="" style="endArrow=classic;html=1;rounded=0;exitX=0;exitY=0.5;exitDx=0;exitDy=0;labelBackgroundColor=none;strokeColor=#006658;fontColor=default;entryX=0;entryY=0.5;entryDx=0;entryDy=0;" edge="1" parent="m9SpIBA4ucCnWhKYg_Qk-1" source="mMk8b1G9N71XOGg3s5Ot-17" target="m9SpIBA4ucCnWhKYg_Qk-6">
          <mxGeometry width="50" height="50" relative="1" as="geometry">
            <mxPoint x="327" y="493" as="sourcePoint" />
            <mxPoint x="422" y="220" as="targetPoint" />
            <Array as="points">
              <mxPoint x="330" y="540" />
              <mxPoint x="277" y="540" />
              <mxPoint x="160" y="540" />
              <mxPoint x="160" y="210" />
            </Array>
          </mxGeometry>
        </mxCell>
        <mxCell id="mMk8b1G9N71XOGg3s5Ot-20" value="" style="endArrow=classic;html=1;rounded=0;entryX=0.5;entryY=0;entryDx=0;entryDy=0;labelBackgroundColor=none;strokeColor=#006658;fontColor=default;entryPerimeter=0;exitX=1;exitY=0.5;exitDx=0;exitDy=0;exitPerimeter=0;" edge="1" parent="m9SpIBA4ucCnWhKYg_Qk-1" target="mMk8b1G9N71XOGg3s5Ot-22" source="mMk8b1G9N71XOGg3s5Ot-9">
          <mxGeometry width="50" height="50" relative="1" as="geometry">
            <mxPoint x="630" y="470" as="sourcePoint" />
            <mxPoint x="586" y="593" as="targetPoint" />
            <Array as="points">
              <mxPoint x="660" y="470" />
              <mxPoint x="660" y="560" />
              <mxPoint x="570" y="560" />
            </Array>
          </mxGeometry>
        </mxCell>
        <mxCell id="mMk8b1G9N71XOGg3s5Ot-21" value="F" style="text;html=1;strokeColor=none;fillColor=none;align=center;verticalAlign=middle;whiteSpace=wrap;rounded=0;labelBackgroundColor=none;fontColor=#5C5C5C;" vertex="1" parent="m9SpIBA4ucCnWhKYg_Qk-1">
          <mxGeometry x="610" y="443" width="60" height="40" as="geometry" />
        </mxCell>
        <mxCell id="mMk8b1G9N71XOGg3s5Ot-22" value="&lt;font style=&quot;font-size: 9px;&quot;&gt;nil &amp;gt;=80&lt;br style=&quot;border-color: var(--border-color);&quot;&gt;&amp;nbsp;dan&lt;br style=&quot;border-color: var(--border-color);&quot;&gt;&amp;lt;=100&lt;/font&gt;" style="strokeWidth=2;html=1;shape=mxgraph.flowchart.decision;whiteSpace=wrap;labelBackgroundColor=none;fillColor=#21C0A5;strokeColor=#006658;fontColor=#5C5C5C;" vertex="1" parent="m9SpIBA4ucCnWhKYg_Qk-1">
          <mxGeometry x="515" y="592" width="110" height="60" as="geometry" />
        </mxCell>
        <mxCell id="mMk8b1G9N71XOGg3s5Ot-23" value="11" style="text;html=1;strokeColor=none;fillColor=none;align=center;verticalAlign=middle;whiteSpace=wrap;rounded=0;labelBackgroundColor=none;fontColor=#5C5C5C;" vertex="1" parent="m9SpIBA4ucCnWhKYg_Qk-1">
          <mxGeometry x="580" y="591" width="60" height="30" as="geometry" />
        </mxCell>
        <mxCell id="mMk8b1G9N71XOGg3s5Ot-24" value="" style="endArrow=classic;html=1;rounded=0;labelBackgroundColor=none;strokeColor=#006658;fontColor=default;entryX=0;entryY=0.5;entryDx=0;entryDy=0;exitX=0;exitY=0.5;exitDx=0;exitDy=0;" edge="1" parent="m9SpIBA4ucCnWhKYg_Qk-1" source="mMk8b1G9N71XOGg3s5Ot-25" target="m9SpIBA4ucCnWhKYg_Qk-6">
          <mxGeometry width="50" height="50" relative="1" as="geometry">
            <mxPoint x="350" y="550" as="sourcePoint" />
            <mxPoint x="430" y="220" as="targetPoint" />
            <Array as="points">
              <mxPoint x="160" y="620" />
              <mxPoint x="160" y="550" />
              <mxPoint x="160" y="210" />
            </Array>
          </mxGeometry>
        </mxCell>
        <mxCell id="mMk8b1G9N71XOGg3s5Ot-25" value="nil_huruf: A" style="rounded=0;whiteSpace=wrap;html=1;labelBackgroundColor=none;fillColor=#21C0A5;strokeColor=#006658;fontColor=#5C5C5C;" vertex="1" parent="m9SpIBA4ucCnWhKYg_Qk-1">
          <mxGeometry x="330" y="606" width="82" height="30" as="geometry" />
        </mxCell>
        <mxCell id="mMk8b1G9N71XOGg3s5Ot-26" value="12" style="text;html=1;strokeColor=none;fillColor=none;align=center;verticalAlign=middle;whiteSpace=wrap;rounded=0;labelBackgroundColor=none;fontColor=#5C5C5C;" vertex="1" parent="m9SpIBA4ucCnWhKYg_Qk-1">
          <mxGeometry x="348" y="580" width="57" height="30" as="geometry" />
        </mxCell>
        <mxCell id="mMk8b1G9N71XOGg3s5Ot-27" value="" style="endArrow=classic;html=1;rounded=0;labelBackgroundColor=none;strokeColor=#006658;fontColor=default;entryX=1;entryY=0.5;entryDx=0;entryDy=0;exitX=0;exitY=0.5;exitDx=0;exitDy=0;exitPerimeter=0;" edge="1" parent="m9SpIBA4ucCnWhKYg_Qk-1" source="mMk8b1G9N71XOGg3s5Ot-22" target="mMk8b1G9N71XOGg3s5Ot-25">
          <mxGeometry width="50" height="50" relative="1" as="geometry">
            <mxPoint x="500" y="621" as="sourcePoint" />
            <mxPoint x="397" y="616" as="targetPoint" />
            <Array as="points" />
          </mxGeometry>
        </mxCell>
        <mxCell id="mMk8b1G9N71XOGg3s5Ot-28" value="" style="endArrow=classic;html=1;rounded=0;labelBackgroundColor=none;strokeColor=#006658;fontColor=default;exitX=0.5;exitY=1;exitDx=0;exitDy=0;exitPerimeter=0;entryX=0.5;entryY=0;entryDx=0;entryDy=0;" edge="1" parent="m9SpIBA4ucCnWhKYg_Qk-1" source="mMk8b1G9N71XOGg3s5Ot-22" target="mMk8b1G9N71XOGg3s5Ot-30">
          <mxGeometry width="50" height="50" relative="1" as="geometry">
            <mxPoint x="525" y="632" as="sourcePoint" />
            <mxPoint x="570" y="700" as="targetPoint" />
            <Array as="points" />
          </mxGeometry>
        </mxCell>
        <mxCell id="mMk8b1G9N71XOGg3s5Ot-30" value="&lt;font style=&quot;font-size: 11px;&quot;&gt;return&lt;br&gt;salah memasukkan nilai&lt;/font&gt;" style="rounded=0;whiteSpace=wrap;html=1;labelBackgroundColor=none;fillColor=#21C0A5;strokeColor=#006658;fontColor=#5C5C5C;" vertex="1" parent="m9SpIBA4ucCnWhKYg_Qk-1">
          <mxGeometry x="500" y="706" width="140" height="34" as="geometry" />
        </mxCell>
        <mxCell id="mMk8b1G9N71XOGg3s5Ot-31" value="13" style="text;html=1;strokeColor=none;fillColor=none;align=center;verticalAlign=middle;whiteSpace=wrap;rounded=0;labelBackgroundColor=none;fontColor=#5C5C5C;" vertex="1" parent="m9SpIBA4ucCnWhKYg_Qk-1">
          <mxGeometry x="563" y="683" width="57" height="30" as="geometry" />
        </mxCell>
        <mxCell id="iW9OL6PYd3UjuOCBBmti-0" value="" style="endArrow=classic;html=1;rounded=0;labelBackgroundColor=none;strokeColor=#006658;fontColor=default;entryX=0.505;entryY=-0.023;entryDx=0;entryDy=0;entryPerimeter=0;" edge="1" parent="m9SpIBA4ucCnWhKYg_Qk-1" target="iW9OL6PYd3UjuOCBBmti-4">
          <mxGeometry width="50" height="50" relative="1" as="geometry">
            <mxPoint x="570" y="740" as="sourcePoint" />
            <mxPoint x="570" y="790" as="targetPoint" />
            <Array as="points" />
          </mxGeometry>
        </mxCell>
        <mxCell id="iW9OL6PYd3UjuOCBBmti-4" value="" style="ellipse;whiteSpace=wrap;html=1;aspect=fixed;labelBackgroundColor=none;fillColor=#21C0A5;strokeColor=#006658;fontColor=#5C5C5C;" vertex="1" parent="m9SpIBA4ucCnWhKYg_Qk-1">
          <mxGeometry x="560" y="791" width="20" height="20" as="geometry" />
        </mxCell>
        <mxCell id="sGlFgHzT4vSTjgLwDlwQ-0" value="" style="endArrow=classic;html=1;rounded=0;labelBackgroundColor=none;strokeColor=#006658;fontColor=default;exitX=0.5;exitY=1;exitDx=0;exitDy=0;exitPerimeter=0;entryX=0.5;entryY=0;entryDx=0;entryDy=0;" edge="1" parent="m9SpIBA4ucCnWhKYg_Qk-1" target="sGlFgHzT4vSTjgLwDlwQ-1">
          <mxGeometry width="50" height="50" relative="1" as="geometry">
            <mxPoint x="570" y="811" as="sourcePoint" />
            <mxPoint x="570" y="859" as="targetPoint" />
            <Array as="points" />
          </mxGeometry>
        </mxCell>
        <mxCell id="sGlFgHzT4vSTjgLwDlwQ-1" value="&lt;font style=&quot;font-size: 11px;&quot;&gt;return&lt;br&gt;nil_huruf&lt;/font&gt;" style="rounded=0;whiteSpace=wrap;html=1;labelBackgroundColor=none;fillColor=#21C0A5;strokeColor=#006658;fontColor=#5C5C5C;" vertex="1" parent="m9SpIBA4ucCnWhKYg_Qk-1">
          <mxGeometry x="500" y="865" width="140" height="34" as="geometry" />
        </mxCell>
        <mxCell id="sGlFgHzT4vSTjgLwDlwQ-2" value="14" style="text;html=1;strokeColor=none;fillColor=none;align=center;verticalAlign=middle;whiteSpace=wrap;rounded=0;labelBackgroundColor=none;fontColor=#5C5C5C;" vertex="1" parent="m9SpIBA4ucCnWhKYg_Qk-1">
          <mxGeometry x="563" y="842" width="57" height="30" as="geometry" />
        </mxCell>
      </root>
    </mxGraphModel>
  </diagram>
</mxfile>
